#tb 0: 1/1200000
#media_type 0: video
#codec_id 0: rawvideo
#dimensions 0: 1024x768
#sar 0: 0/1
#tb 1: 1/1200000
#media_type 1: video
#codec_id 1: rawvideo
#dimensions 1: 1024x768
#sar 1: 0/1
0,          0,          0,        0,  1179648, 0x4a15620e
1,          0,          0,        0,  1179648, 0x5b752453
0,          1,          1,        0,  1179648, 0x568f99cf
1,          1,          1,        0,  1179648, 0xacf4376d
0,          2,          2,        0,  1179648, 0xea67491c
1,          2,          2,        0,  1179648, 0xa9d6e75d
0,          3,          3,        0,  1179648, 0x57ed0a7f
1,          3,          3,        0,  1179648, 0x2142cc59
0,          4,          4,        0,  1179648, 0x5b218d68
1,          4,          4,        0,  1179648, 0x838d4f0a
0,          5,          5,        0,  1179648, 0x8075c0c0
1,          5,          5,        0,  1179648, 0x29bc71c2
0,          6,          6,        0,  1179648, 0x75e0bb9f
1,          6,          6,        0,  1179648, 0x3b25ee18
0,          7,          7,        0,  1179648, 0xaef237d0
1,          7,          7,        0,  1179648, 0x60ecae5b
0,          8,          8,        0,  1179648, 0x9943126a
1,          8,          8,        0,  1179648, 0x8c3c635e
0,          9,          9,        0,  1179648, 0x3c8bbac8
1,          9,          9,        0,  1179648, 0x8f4cb379
0,         10,         10,        0,  1179648, 0xad824cae
1,         10,         10,        0,  1179648, 0x398fec3c
0,         11,         11,        0,  1179648, 0x3c156c58
1,         11,         11,        0,  1179648, 0xced70ad2
0,         12,         12,        0,  1179648, 0x18261259
1,         12,         12,        0,  1179648, 0x4d85d789
0,         13,         13,        0,  1179648, 0xd481dafa
1,         13,         13,        0,  1179648, 0xca3a70ea
0,         14,         14,        0,  1179648, 0x6a0d3af8
1,         14,         14,        0,  1179648, 0xcda13236
0,         15,         15,        0,  1179648, 0xaa355e8f
1,         15,         15,        0,  1179648, 0xe64a93c3
0,         16,         16,        0,  1179648, 0xed69e4bc
1,         16,         16,        0,  1179648, 0x4426cbae
0,         17,         17,        0,  1179648, 0x340d6c4a
1,         17,         17,        0,  1179648, 0x544d045f
0,         18,         18,        0,  1179648, 0xd52398d0
1,         18,         18,        0,  1179648, 0x62b07e2a
0,         19,         19,        0,  1179648, 0x39d92b93
1,         19,         19,        0,  1179648, 0x4ae8ac0e
0,         20,         20,        0,  1179648, 0x364fd94f
1,         20,         20,        0,  1179648, 0x092cad19
0,         21,         21,        0,  1179648, 0x977cabf5
1,         21,         21,        0,  1179648, 0x8eab2b13
0,         22,         22,        0,  1179648, 0x23febfaf
1,         22,         22,        0,  1179648, 0x71fa0330
0,         23,         23,        0,  1179648, 0xd7e5afa0
1,         23,         23,        0,  1179648, 0xb0924dbb
0,         24,         24,        0,  1179648, 0x83799fed
1,         24,         24,        0,  1179648, 0x895d98be
0,         25,         25,        0,  1179648, 0xaec7466c
1,         25,         25,        0,  1179648, 0xd91c1ea6
0,         26,         26,        0,  1179648, 0x4c4de340
1,         26,         26,        0,  1179648, 0x1b4c5dee
0,         27,         27,        0,  1179648, 0x1c8c5bf6
1,         27,         27,        0,  1179648, 0x88c1a214
0,         28,         28,        0,  1179648, 0xc980311c
1,         28,         28,        0,  1179648, 0x5861006d
0,         29,         29,        0,  1179648, 0xb55dbf43
1,         29,         29,        0,  1179648, 0xd4ed787c
0,         30,         30,        0,  1179648, 0xbc29868a
1,         30,         30,        0,  1179648, 0x1911a0e0
0,         31,         31,        0,  1179648, 0x3d1dfc87
1,         31,         31,        0,  1179648, 0x5a37d3db
0,         32,         32,        0,  1179648, 0x4e12d459
1,         32,         32,        0,  1179648, 0x05d5a5a9
0,         33,         33,        0,  1179648, 0xb4eb0d99
1,         33,         33,        0,  1179648, 0x59f898f8
0,         34,         34,        0,  1179648, 0x1d91ae23
1,         34,         34,        0,  1179648, 0x7aa2fa66
0,         35,         35,        0,  1179648, 0x0adf2e05
1,         35,         35,        0,  1179648, 0x868149ad
0,         36,         36,        0,  1179648, 0x947e48dd
1,         36,         36,        0,  1179648, 0x4c0a3019
0,         37,         37,        0,  1179648, 0xb7dddffd
1,         37,         37,        0,  1179648, 0x94bea701
0,         38,         38,        0,  1179648, 0x027f1113
1,         38,         38,        0,  1179648, 0xf6c2b923
0,         39,         39,        0,  1179648, 0xc2a0afa2
1,         39,         39,        0,  1179648, 0xcc7c08c4
0,         40,         40,        0,  1179648, 0xd12a6bc0
1,         40,         40,        0,  1179648, 0x21afffac
0,         41,         41,        0,  1179648, 0xf8f5d7ee
1,         41,         41,        0,  1179648, 0x0339f774
0,         42,         42,        0,  1179648, 0xa7e5fd01
1,         42,         42,        0,  1179648, 0x6a66793e
0,         43,         43,        0,  1179648, 0xe9aee64d
1,         43,         43,        0,  1179648, 0x17f5ae53
0,         44,         44,        0,  1179648, 0x989fc660
1,         44,         44,        0,  1179648, 0xa741e3bf
0,         45,         45,        0,  1179648, 0x43e1d4d0
1,         45,         45,        0,  1179648, 0xa7895cc1
0,         46,         46,        0,  1179648, 0x38be7f17
1,         46,         46,        0,  1179648, 0x0228cf31
0,         47,         47,        0,  1179648, 0xd867c854
1,         47,         47,        0,  1179648, 0x870f2d06
